<svg xmlns="http://www.w3.org/2000/svg" width="36" height="36" viewBox="0 0 36 36">
  <g id="Group_1" data-name="Group 1" transform="translate(-229 -350)">
    <rect id="Rectangle_9" data-name="Rectangle 9" width="36" height="36" rx="6" transform="translate(229 350)" fill="#eb3455"/>
    <path id="S" d="M5.859,14.27a6.4,6.4,0,0,0,2.448-.45,4.043,4.043,0,0,0,1.746-1.314,3.431,3.431,0,0,0,.657-2.124,3.145,3.145,0,0,0-.342-1.548,2.9,2.9,0,0,0-.864-.99,4.522,4.522,0,0,0-1.08-.585q-.549-.207-.972-.324L4.986,6.224a9.134,9.134,0,0,1-.981-.342,2.516,2.516,0,0,1-.846-.576,1.382,1.382,0,0,1-.333-.963,1.646,1.646,0,0,1,.369-1.062,2.481,2.481,0,0,1,1.017-.729A3.707,3.707,0,0,1,5.652,2.3,3.515,3.515,0,0,1,7.8,3,2.8,2.8,0,0,1,8.928,4.865l1.7-.3A4.444,4.444,0,0,0,8.946,1.8,5.265,5.265,0,0,0,5.67.779,5.867,5.867,0,0,0,3.348,1.2a3.742,3.742,0,0,0-1.62,1.251,3.226,3.226,0,0,0-.594,1.962A2.926,2.926,0,0,0,1.53,6,3.106,3.106,0,0,0,2.574,7.007a6.571,6.571,0,0,0,1.368.585l3.3.981A3.9,3.9,0,0,1,8.5,9.2a1.477,1.477,0,0,1,.558,1.269,1.85,1.85,0,0,1-.423,1.215,2.66,2.66,0,0,1-1.116.792,4.358,4.358,0,0,1-1.575.27,4.029,4.029,0,0,1-2.349-.684,3.245,3.245,0,0,1-1.305-1.917L.63,10.409a4.469,4.469,0,0,0,.927,2.061A4.745,4.745,0,0,0,3.375,13.8,6.321,6.321,0,0,0,5.859,14.27Z" transform="translate(241.37 360.221)" fill="#fff"/>
  </g>
</svg>
