<svg width="30" height="30" viewBox="0 0 30 30" fill="none" xmlns="http://www.w3.org/2000/svg">
<path d="M26.25 11.25V26.2413C26.2512 26.4054 26.22 26.5682 26.1582 26.7203C26.0965 26.8724 26.0053 27.0108 25.8901 27.1277C25.7748 27.2446 25.6377 27.3376 25.4864 27.4015C25.3352 27.4654 25.1729 27.4989 25.0087 27.5H4.99125C4.66227 27.5 4.34674 27.3694 4.114 27.1369C3.88125 26.9044 3.75033 26.589 3.75 26.26V3.74C3.75 3.06875 4.30875 2.5 4.9975 2.5H17.5V10C17.5 10.3315 17.6317 10.6495 17.8661 10.8839C18.1005 11.1183 18.4185 11.25 18.75 11.25H26.25ZM26.25 8.75H20V2.50375L26.25 8.75ZM10 8.75V11.25H13.75V8.75H10ZM10 13.75V16.25H20V13.75H10ZM10 18.75V21.25H20V18.75H10Z" fill="#4F69FC"/>
</svg>
