<svg width="20" height="20" viewBox="0 0 20 20" fill="none" xmlns="http://www.w3.org/2000/svg">
<path d="M10 10.4883L13.5358 14.0233L12.3567 15.2025L10.8333 13.6792V18.3333H9.16667V13.6775L7.64334 15.2025L6.46417 14.0233L10 10.4883ZM10 1.66666C11.4308 1.66672 12.8117 2.19258 13.8802 3.14426C14.9486 4.09593 15.6301 5.40704 15.795 6.82832C16.8319 7.11109 17.7364 7.74924 18.3506 8.63126C18.9647 9.51328 19.2493 10.5831 19.1547 11.6536C19.0601 12.7242 18.5923 13.7275 17.833 14.4882C17.0737 15.2488 16.0712 15.7185 15.0008 15.815V14.1367C15.3843 14.0819 15.753 13.9513 16.0855 13.7525C16.4179 13.5536 16.7075 13.2906 16.9371 12.9787C17.1668 12.6667 17.3321 12.3122 17.4232 11.9357C17.5144 11.5592 17.5296 11.1683 17.4681 10.7859C17.4066 10.4034 17.2694 10.0371 17.0648 9.7082C16.8601 9.37932 16.592 9.0945 16.276 8.87038C15.9601 8.64626 15.6026 8.48732 15.2246 8.40283C14.8466 8.31835 14.4555 8.31002 14.0742 8.37832C14.2047 7.77073 14.1976 7.14163 14.0535 6.53712C13.9094 5.9326 13.6319 5.36798 13.2413 4.8846C12.8508 4.40122 12.357 4.01133 11.7962 3.74349C11.2355 3.47564 10.6219 3.33663 10.0004 3.33663C9.37897 3.33663 8.76538 3.47564 8.20461 3.74349C7.64384 4.01133 7.15008 4.40122 6.75951 4.8846C6.36893 5.36798 6.09143 5.9326 5.94732 6.53712C5.80322 7.14163 5.79616 7.77073 5.92667 8.37832C5.16638 8.23555 4.38052 8.40064 3.74196 8.83729C3.1034 9.27394 2.66445 9.94637 2.52167 10.7067C2.3789 11.4669 2.54399 12.2528 2.98064 12.8914C3.41729 13.5299 4.08972 13.9689 4.85 14.1117L5 14.1367V15.815C3.92955 15.7186 2.92701 15.2491 2.16761 14.4885C1.40822 13.7279 0.940276 12.7246 0.845565 11.654C0.750854 10.5834 1.0354 9.51356 1.64948 8.63147C2.26355 7.74938 3.16809 7.11115 4.205 6.82832C4.36976 5.40697 5.05118 4.09575 6.11965 3.14404C7.18813 2.19234 8.56913 1.66654 10 1.66666Z" fill="white"/>
</svg>
