<svg width="19" height="19" viewBox="0 0 19 19" fill="none" xmlns="http://www.w3.org/2000/svg">
<path d="M13.4584 4.75H17.4167V6.33333H15.8334V16.625C15.8334 16.835 15.75 17.0363 15.6015 17.1848C15.453 17.3333 15.2517 17.4167 15.0417 17.4167H3.95837C3.74841 17.4167 3.54705 17.3333 3.39858 17.1848C3.25012 17.0363 3.16671 16.835 3.16671 16.625V6.33333H1.58337V4.75H5.54171V2.37499C5.54171 2.16503 5.62512 1.96367 5.77358 1.8152C5.92205 1.66674 6.12341 1.58333 6.33337 1.58333H12.6667C12.8767 1.58333 13.078 1.66674 13.2265 1.8152C13.375 1.96367 13.4584 2.16503 13.4584 2.37499V4.75ZM14.25 6.33333H4.75004V15.8333H14.25V6.33333ZM7.12504 8.70833H8.70837V13.4583H7.12504V8.70833ZM10.2917 8.70833H11.875V13.4583H10.2917V8.70833ZM7.12504 3.16666V4.75H11.875V3.16666H7.12504Z" fill="white"/>
</svg>
