<svg xmlns="http://www.w3.org/2000/svg" width="34.641" height="39.072" viewBox="0 0 34.641 39.072">
  <g id="Group_1" data-name="Group 1" transform="translate(-202 -288)">
    <path id="Group_1-2" data-name="Group 1" d="M18.5.866a3,3,0,0,1,3,0L35.82,9.134a3,3,0,0,1,1.5,2.6V28.268a3,3,0,0,1-1.5,2.6L21.5,39.134a3,3,0,0,1-3,0L4.179,30.866a3,3,0,0,1-1.5-2.6V11.732a3,3,0,0,1,1.5-2.6Z" transform="translate(199.32 287.536)" fill="#4f69fc"/>
    <path id="contrast-drop-2-line_1" data-name="contrast-drop-2-line 1" d="M10,2.583,5.875,6.708a5.833,5.833,0,1,0,8.25,0ZM10,.227l5.3,5.3A7.5,7.5,0,1,1,4.7,5.53ZM5.833,10.833h8.333a4.167,4.167,0,1,1-8.333,0Z" transform="translate(209.5 297.773)" fill="#fff"/>
  </g>
</svg>
