<svg width="20" height="20" viewBox="0 0 20 20" fill="none" xmlns="http://www.w3.org/2000/svg">
<path d="M10 2.58332L5.875 6.70832C5.05926 7.52415 4.50374 8.56355 4.27871 9.69509C4.05368 10.8266 4.16923 11.9995 4.61076 13.0654C5.05229 14.1312 5.79997 15.0422 6.75924 15.6832C7.71851 16.3241 8.8463 16.6662 10 16.6662C11.1537 16.6662 12.2815 16.3241 13.2408 15.6832C14.2 15.0422 14.9477 14.1312 15.3892 13.0654C15.8308 11.9995 15.9463 10.8266 15.7213 9.69509C15.4963 8.56355 14.9408 7.52415 14.125 6.70832L10 2.58332ZM10 0.226654L15.3033 5.52999C16.3522 6.57889 17.0665 7.91526 17.3559 9.37011C17.6453 10.825 17.4968 12.333 16.9291 13.7034C16.3614 15.0738 15.4001 16.2452 14.1668 17.0693C12.9334 17.8934 11.4834 18.3333 10 18.3333C8.51665 18.3333 7.0666 17.8934 5.83324 17.0693C4.59987 16.2452 3.63858 15.0738 3.07092 13.7034C2.50326 12.333 2.35473 10.825 2.64411 9.37011C2.93349 7.91526 3.64779 6.57889 4.69667 5.52999L10 0.226654ZM5.83334 10.8333H14.1667C14.1667 11.9384 13.7277 12.9982 12.9463 13.7796C12.1649 14.561 11.1051 15 10 15C8.89493 15 7.83513 14.561 7.05372 13.7796C6.27232 12.9982 5.83334 11.9384 5.83334 10.8333Z" fill="white"/>
</svg>
