<svg xmlns="http://www.w3.org/2000/svg" width="90" height="90" viewBox="0 0 90 90">
  <g id="Group_1" data-name="Group 1" transform="translate(-79 -316)">
    <rect id="Rectangle_8" data-name="Rectangle 8" width="90" height="90" rx="10" transform="translate(79 316)" fill="#dadfff"/>
    <path id="file-pdf-fill_1" data-name="file-pdf-fill 1" d="M30.667,3.833l9.583,9.583V40.265a1.9,1.9,0,0,1-1.9,1.9H7.653a1.917,1.917,0,0,1-1.9-1.9V5.735a1.9,1.9,0,0,1,1.9-1.9ZM23,30.667a7.667,7.667,0,1,0,0-15.333H15.333V30.667Zm-3.833-11.5H23a3.833,3.833,0,1,1,0,7.667H19.167Z" transform="translate(101.25 338.167)" fill="#4f69fc"/>
  </g>
</svg>
